<svg xmlns="http://www.w3.org/2000/svg" width="1200" height="680" viewBox="0 0 1200 680" role="img" aria-label="SpyTX IP result terminal screenshot">
  <rect width="1200" height="680" fill="#05070a"/>
  <rect x="28" y="24" width="1144" height="632" rx="10" fill="#0b0f14" stroke="#2b3440" stroke-width="2"/>
  <rect x="28" y="24" width="1144" height="42" rx="10" fill="#111923"/>
  <circle cx="56" cy="45" r="7" fill="#ff5f57"/>
  <circle cx="78" cy="45" r="7" fill="#ffbd2e"/>
  <circle cx="100" cy="45" r="7" fill="#28c840"/>
  <text x="600" y="51" fill="#95a3b3" font-family="Consolas, monospace" font-size="15" text-anchor="middle">spytx ip result</text>
  <text x="72" y="116" fill="#94a3b8" font-family="Consolas, monospace" font-size="18">$ py main.py ip 8.8.8.8</text>
  <rect x="72" y="152" width="1056" height="430" rx="6" fill="#05070a" stroke="#334155"/>
  <text x="104" y="202" fill="#f8fafc" font-family="Consolas, monospace" font-size="19">{</text>
  <text x="136" y="240" fill="#7dd3fc" font-family="Consolas, monospace" font-size="19">"ok"</text>
  <text x="190" y="240" fill="#f8fafc" font-family="Consolas, monospace" font-size="19">: true,</text>
  <text x="136" y="278" fill="#7dd3fc" font-family="Consolas, monospace" font-size="19">"result"</text>
  <text x="220" y="278" fill="#f8fafc" font-family="Consolas, monospace" font-size="19">: {</text>
  <text x="168" y="316" fill="#7dd3fc" font-family="Consolas, monospace" font-size="19">"ip"</text>
  <text x="220" y="316" fill="#f8fafc" font-family="Consolas, monospace" font-size="19">: "8.8.8.8",</text>
  <text x="168" y="354" fill="#7dd3fc" font-family="Consolas, monospace" font-size="19">"version"</text>
  <text x="260" y="354" fill="#f8fafc" font-family="Consolas, monospace" font-size="19">: 4,</text>
  <text x="168" y="392" fill="#7dd3fc" font-family="Consolas, monospace" font-size="19">"is_global"</text>
  <text x="286" y="392" fill="#f8fafc" font-family="Consolas, monospace" font-size="19">: true,</text>
  <text x="168" y="430" fill="#7dd3fc" font-family="Consolas, monospace" font-size="19">"reverse_dns"</text>
  <text x="310" y="430" fill="#f8fafc" font-family="Consolas, monospace" font-size="19">: "dns.google",</text>
  <text x="168" y="468" fill="#7dd3fc" font-family="Consolas, monospace" font-size="19">"scope"</text>
  <text x="246" y="468" fill="#f8fafc" font-family="Consolas, monospace" font-size="19">: "public IP metadata"</text>
  <text x="136" y="506" fill="#f8fafc" font-family="Consolas, monospace" font-size="19">}</text>
  <text x="104" y="544" fill="#f8fafc" font-family="Consolas, monospace" font-size="19">}</text>
</svg>
