<svg xmlns="http://www.w3.org/2000/svg" width="1200" height="680" viewBox="0 0 1200 680" role="img" aria-label="SpyTX IP result terminal screenshot">
  <rect width="1200" height="680" fill="#03070b"/>
  <rect x="28" y="24" width="1144" height="632" rx="10" fill="#071018" stroke="#263445" stroke-width="2"/>
  <rect x="28" y="24" width="1144" height="42" rx="10" fill="#111b27"/>
  <circle cx="56" cy="45" r="7" fill="#ff5f57"/>
  <circle cx="78" cy="45" r="7" fill="#ffbd2e"/>
  <circle cx="100" cy="45" r="7" fill="#28c840"/>
  <text x="600" y="51" fill="#9aa7b7" font-family="Consolas, monospace" font-size="15" text-anchor="middle">SpyTX IP Result</text>
  <text x="72" y="116" fill="#94a3b8" font-family="Consolas, monospace" font-size="18">SpyTX&gt; /deepip 8.8.8.8</text>
  <rect x="72" y="152" width="1056" height="430" rx="6" fill="#050b12" stroke="#334155"/>
  <text x="104" y="206" fill="#38a3ff" font-family="Consolas, monospace" font-size="20">ip</text>
  <text x="250" y="206" fill="#f8fafc" font-family="Consolas, monospace" font-size="20">8.8.8.8</text>
  <text x="104" y="250" fill="#38a3ff" font-family="Consolas, monospace" font-size="20">reverse_dns</text>
  <text x="250" y="250" fill="#f8fafc" font-family="Consolas, monospace" font-size="20">dns.google</text>
  <text x="104" y="294" fill="#38a3ff" font-family="Consolas, monospace" font-size="20">visibility</text>
  <text x="250" y="294" fill="#f8fafc" font-family="Consolas, monospace" font-size="20">public network address</text>
  <text x="104" y="338" fill="#38a3ff" font-family="Consolas, monospace" font-size="20">geo</text>
  <text x="250" y="338" fill="#f8fafc" font-family="Consolas, monospace" font-size="20">Mountain View, California</text>
  <text x="104" y="382" fill="#38a3ff" font-family="Consolas, monospace" font-size="20">precision</text>
  <text x="250" y="382" fill="#f8fafc" font-family="Consolas, monospace" font-size="20">A / two public sources</text>
  <text x="104" y="426" fill="#38a3ff" font-family="Consolas, monospace" font-size="20">scope</text>
  <text x="250" y="426" fill="#f8fafc" font-family="Consolas, monospace" font-size="20">network-level metadata, not device GPS</text>
  <rect x="104" y="486" width="380" height="44" rx="6" fill="#0f1b28" stroke="#38a3ff"/>
  <text x="128" y="514" fill="#f8fafc" font-family="Consolas, monospace" font-size="18">record_id: 12</text>
</svg>
