<svg xmlns="http://www.w3.org/2000/svg" width="1200" height="720" viewBox="0 0 1200 720" role="img" aria-label="SpyTX geo result terminal screenshot">
  <rect width="1200" height="720" fill="#03070b"/>
  <rect x="28" y="24" width="1144" height="672" rx="10" fill="#071018" stroke="#263445" stroke-width="2"/>
  <rect x="28" y="24" width="1144" height="42" rx="10" fill="#111b27"/>
  <circle cx="56" cy="45" r="7" fill="#ff5f57"/>
  <circle cx="78" cy="45" r="7" fill="#ffbd2e"/>
  <circle cx="100" cy="45" r="7" fill="#28c840"/>
  <text x="600" y="51" fill="#9aa7b7" font-family="Consolas, monospace" font-size="15" text-anchor="middle">SpyTX Geo Result</text>
  <text x="72" y="116" fill="#94a3b8" font-family="Consolas, monospace" font-size="18">SpyTX&gt; /geo 8.8.8.8</text>
  <rect x="72" y="152" width="1056" height="492" rx="6" fill="#050b12" stroke="#334155"/>
  <text x="104" y="210" fill="#38a3ff" font-family="Consolas, monospace" font-size="20">best</text>
  <text x="300" y="210" fill="#f8fafc" font-family="Consolas, monospace" font-size="20">Mountain View, California, US</text>
  <text x="104" y="254" fill="#38a3ff" font-family="Consolas, monospace" font-size="20">coordinate</text>
  <text x="300" y="254" fill="#f8fafc" font-family="Consolas, monospace" font-size="20">37.4056, -122.0775</text>
  <text x="104" y="298" fill="#38a3ff" font-family="Consolas, monospace" font-size="20">network</text>
  <text x="300" y="298" fill="#f8fafc" font-family="Consolas, monospace" font-size="20">AS15169 Google LLC</text>
  <text x="104" y="342" fill="#38a3ff" font-family="Consolas, monospace" font-size="20">precision</text>
  <text x="300" y="342" fill="#f8fafc" font-family="Consolas, monospace" font-size="20">A, source spread near 1 km</text>
  <text x="104" y="386" fill="#38a3ff" font-family="Consolas, monospace" font-size="20">sources</text>
  <text x="300" y="386" fill="#f8fafc" font-family="Consolas, monospace" font-size="20">ipwho.is + ipinfo.io</text>
  <text x="104" y="430" fill="#38a3ff" font-family="Consolas, monospace" font-size="20">scope</text>
  <text x="300" y="430" fill="#f8fafc" font-family="Consolas, monospace" font-size="20">network-level estimate, not device GPS</text>
  <rect x="104" y="506" width="520" height="44" rx="6" fill="#0f1b28" stroke="#38a3ff"/>
  <text x="128" y="534" fill="#f8fafc" font-family="Consolas, monospace" font-size="18">/copygmaps 8.8.8.8</text>
</svg>
